<svg viewBox="0 0 600 450" width="600px" xmlns="http://www.w3.org/2000/svg">
<path d="M45.74456,7.8446527 M45.744,7.3801293 C59.42476,8.775763,73.79385,8.265409,83.41697,7.2238307 M44.915375,7.7817225 C55.272587,7.067919,65.82245,7.5739994,84.59538,6.8722835 M44.42391,5.6656218 M46.023354,8.846221 C45.68751,15.498936,45.09083,19.643936,46.17604,37.41416 M45.60617,6.553427 C44.025032,13.770733,45.636917,21.060726,45.054974,38.310745 M84.66119,7.6397076 M83.265625,5.648552 C85.87515,14.93528,84.42543,18.610504,84.156395,39.238876 M84.145454,6.9855413 C83.93686,18.63685,85.33477,28.617733,85.5513,37.789204 M45.96247,36.064762 M46.713158,36.269863 C55.13404,39.7911,69.79853,39.47736,84.435234,38.952946 M44.805428,38.093372 C56.911713,38.12142,69.445305,37.732895,84.81135,38.372036" fill="none" stroke="#ffffffff" stroke-width="1"/>
<text dominant-baseline="middle" fill="#ffffffff" font-family="monospace" font-size="16" text-anchor="middle" x="65" y="22.5">
O
</text>
<text dominant-baseline="middle" fill="#ffffffff" font-family="monospace" font-size="16" text-anchor="middle" x="75" y="22.5">
O
</text>
</svg>
