<svg viewBox="0 0 600 450" xmlns="http://www.w3.org/2000/svg">
<path d="M104.90647,95.79789 M105.45567,95.90444 C161.12694,99.97005,216.14871,100.93437,326.2706,97.72486 M105.70861,97.75237 C150.06207,94.98207,194.66623,96.07354,324.23752,97.46921 M106.70377,98.505554 M106.8945,97.61648 C102.65248,136.91214,102.72936,177.68109,104.1081,216.49365 M104.40127,97.64839 C105.922516,134.02638,105.30972,168.90385,105.08708,217.7795 M323.51563,95.578384 M326.7721,97.17792 C324.32834,135.00302,325.9622,171.74614,324.5856,218.97945 M325.62988,97.901955 C324.5595,128.57,323.61154,162.16783,324.24203,216.90163 M104.96713,218.66489 M103.510544,217.3889 C172.07413,216.25099,241.97446,214.74582,323.38354,215.86253 M104.41442,217.41666 C180.06493,218.01947,254.77293,217.46098,325.62436,217.61906" fill="none" stroke="white" stroke-width="1"/>
<path d="M54.21572,128.84438 M53.373795,128.6071 C64.82644,126.94993,74.032776,126.8626,96.70024,128.36308 M55.860897,128.03789 C69.25762,127.89304,82.5615,127.06223,94.538185,126.7313 M53.168045,126.8666 M55.050526,126.29306 C56.487034,142.22511,54.286022,156.44005,55.084915,172.44815 M55.790432,126.72793 C56.328087,137.2909,55.476322,147.46771,55.32956,172.49461" fill="none" stroke="white" stroke-width="1"/>
<path d="M90.74456,124.84465 M90.38838,124.43742 C93.656006,126.07605,97.342926,126.86122,99.17363,127.355835 M89.955826,124.647064 C92.60102,125.18681,95.38765,126.2011,99.78878,127.172325 M100.823586,126.90342 C97.76722,128.84819,94.63288,129.75304,89.80034,130.07619 M99.87307,126.99785 C96.72583,127.931564,92.388596,129.25755,90.40864,130.54301 M90.041916,129.92595 C90.09181,128.60109,89.3824,126.278595,90.20582,124.89166 M90.26083,130.65266 C89.83155,129.03076,89.81258,127.203865,89.823494,124.683044" fill="none" stroke="white" stroke-width="1"/>
<path d="M50.74456,169.84465 M50.29054,169.45319 C51.79029,171.96324,53.67882,173.86711,54.381805,175.39215 M49.966953,169.61002 C51.274307,170.98988,52.73864,172.68773,54.84199,175.25487 M55.616116,175.05371 C56.86567,174.48262,57.905663,172.9237,59.850636,169.18295 M54.905045,175.12434 C57.035877,173.0529,58.26941,171.08682,60.3057,169.53218 M60.069855,168.54324 C57.2602,169.35623,53.022865,168.5404,50.343025,170.15277 M60.43472,169.75446 C56.98619,169.58505,54.3364,169.1584,49.70582,169.80507" fill="none" stroke="white" stroke-width="1"/>
<path d="M334.99585,128.76355 M336.93823,128.49196 C344.60083,128.95374,353.03656,127.689674,366.9197,126.1626 M335.98242,127.15036 C344.52417,126.5196,351.80115,126.40117,365.85446,126.92972 M366.7939,126.57168 M366.57034,128.99715 C366.04297,142.74028,364.58533,158.51494,366.6181,187.79924 M364.2828,127.2152 C364.92178,143.58798,364.78976,158.88776,365.76245,188.04655 M333.41476,187.96492 M333.99713,186.36877 C340.1509,187.32979,349.28854,189.13042,366.42557,186.31775 M335.46497,187.31989 C346.79907,188.2066,357.74673,188.11887,364.44412,187.93878" fill="none" stroke="white" stroke-width="1"/>
<path d="M333.575,123.09889 C334.53726,122.74042,336.38126,122.618546,337.2319,122.926346 C338.08255,123.234146,338.30203,124.13123,338.67896,124.94571 C339.05588,125.760185,339.45242,126.744965,339.49344,127.8132 C339.53445,128.88144,339.64728,130.52188,338.925,131.35513 C338.2027,132.18839,336.34753,132.68794,335.15973,132.81274 C333.97192,132.93755,332.55225,132.93076,331.79813,132.10394 C331.044,131.27713,330.9308,129.1048,330.63507,127.85189 C330.33936,126.59898,329.69205,125.59066,330.0238,124.586525 C330.35556,123.58239,331.87476,122.233734,332.62555,121.827065 C333.37634,121.420395,334.26617,121.813644,334.5286,122.146484 M334.6637,123.34618 C335.50153,123.19624,337.57562,122.33502,338.4135,122.6854 C339.2514,123.03578,339.39713,124.424034,339.6911,125.44844 C339.98508,126.47285,340.91925,127.80293,340.17734,128.83183 C339.43542,129.86073,336.23947,131.0499,335.2397,131.62183 C334.2399,132.19376,334.9616,132.36702,334.17862,132.26343 C333.39563,132.15984,331.27408,131.96678,330.54175,131.00029 C329.80942,130.0338,329.7909,127.64094,329.7847,126.464485 C329.7785,125.28803,329.61743,124.82508,330.5046,123.94156 C331.39178,123.05804,334.54547,121.30706,335.1078,121.16337 C335.6701,121.01968,333.69244,122.87414,333.87857,123.07941" fill="none" stroke="white" stroke-width="1"/>
<path d="M333.575,183.09889 C334.53726,182.74042,336.38126,182.61855,337.2319,182.92635 C338.08255,183.23415,338.30203,184.13123,338.67896,184.94571 C339.05588,185.7602,339.45242,186.74496,339.49344,187.8132 C339.53445,188.88144,339.64728,190.52188,338.925,191.35513 C338.2027,192.18839,336.34753,192.68794,335.15973,192.81274 C333.97192,192.93755,332.55225,192.93076,331.79813,192.10394 C331.044,191.27713,330.9308,189.1048,330.63507,187.8519 C330.33936,186.599,329.69205,185.59067,330.0238,184.58653 C330.35556,183.5824,331.87476,182.23373,332.62555,181.82706 C333.37634,181.42038,334.26617,181.81364,334.5286,182.14648 M334.6637,183.34618 C335.50153,183.19623,337.57562,182.33504,338.4135,182.68541 C339.2514,183.03578,339.39713,184.42404,339.6911,185.44844 C339.98508,186.47284,340.91925,187.80293,340.17734,188.83183 C339.43542,189.86073,336.23947,191.0499,335.2397,191.62183 C334.2399,192.19376,334.9616,192.367,334.17862,192.26341 C333.39563,192.15982,331.27408,191.96678,330.54175,191.00029 C329.80942,190.0338,329.7909,187.64095,329.7847,186.4645 C329.7785,185.28804,329.61743,184.8251,330.5046,183.94157 C331.39178,183.05804,334.54547,181.30705,335.1078,181.16336 C335.6701,181.01967,333.69244,182.87415,333.87857,183.0794" fill="none" stroke="white" stroke-width="1"/>
<text dominant-baseline="middle" fill="#D4D4D4" font-family="monospace" font-size="16" text-anchor="middle" x="125" y="127.5">
d
</text>
<text dominant-baseline="middle" fill="#D4D4D4" font-family="monospace" font-size="16" text-anchor="middle" x="135" y="127.5">
a
</text>
<text dominant-baseline="middle" fill="#D4D4D4" font-family="monospace" font-size="16" text-anchor="middle" x="145" y="127.5">
t
</text>
<text dominant-baseline="middle" fill="#D4D4D4" font-family="monospace" font-size="16" text-anchor="middle" x="155" y="127.5">
a
</text>
<text dominant-baseline="middle" fill="#D4D4D4" font-family="monospace" font-size="16" text-anchor="middle" x="275" y="127.5">
d
</text>
<text dominant-baseline="middle" fill="#D4D4D4" font-family="monospace" font-size="16" text-anchor="middle" x="285" y="127.5">
a
</text>
<text dominant-baseline="middle" fill="#D4D4D4" font-family="monospace" font-size="16" text-anchor="middle" x="295" y="127.5">
t
</text>
<text dominant-baseline="middle" fill="#D4D4D4" font-family="monospace" font-size="16" text-anchor="middle" x="305" y="127.5">
a
</text>
<text dominant-baseline="middle" fill="#D4D4D4" font-family="monospace" font-size="16" text-anchor="middle" x="95" y="157.5">
o
</text>
<text dominant-baseline="middle" fill="#D4D4D4" font-family="monospace" font-size="16" text-anchor="middle" x="125" y="157.5">
f
</text>
<text dominant-baseline="middle" fill="#D4D4D4" font-family="monospace" font-size="16" text-anchor="middle" x="135" y="157.5">
u
</text>
<text dominant-baseline="middle" fill="#D4D4D4" font-family="monospace" font-size="16" text-anchor="middle" x="145" y="157.5">
l
</text>
<text dominant-baseline="middle" fill="#D4D4D4" font-family="monospace" font-size="16" text-anchor="middle" x="155" y="157.5">
l
</text>
<text dominant-baseline="middle" fill="#D4D4D4" font-family="monospace" font-size="16" text-anchor="middle" x="275" y="157.5">
n
</text>
<text dominant-baseline="middle" fill="#D4D4D4" font-family="monospace" font-size="16" text-anchor="middle" x="285" y="157.5">
e
</text>
<text dominant-baseline="middle" fill="#D4D4D4" font-family="monospace" font-size="16" text-anchor="middle" x="295" y="157.5">
x
</text>
<text dominant-baseline="middle" fill="#D4D4D4" font-family="monospace" font-size="16" text-anchor="middle" x="305" y="157.5">
t
</text>
<text dominant-baseline="middle" fill="#D4D4D4" font-family="monospace" font-size="16" text-anchor="middle" x="335" y="157.5">
&gt;
</text>
<text dominant-baseline="middle" fill="#D4D4D4" font-family="monospace" font-size="16" text-anchor="middle" x="95" y="187.5">
o
</text>
<text dominant-baseline="middle" fill="#D4D4D4" font-family="monospace" font-size="16" text-anchor="middle" x="125" y="187.5">
o
</text>
<text dominant-baseline="middle" fill="#D4D4D4" font-family="monospace" font-size="16" text-anchor="middle" x="135" y="187.5">
v
</text>
<text dominant-baseline="middle" fill="#D4D4D4" font-family="monospace" font-size="16" text-anchor="middle" x="145" y="187.5">
e
</text>
<text dominant-baseline="middle" fill="#D4D4D4" font-family="monospace" font-size="16" text-anchor="middle" x="155" y="187.5">
r
</text>
<text dominant-baseline="middle" fill="#D4D4D4" font-family="monospace" font-size="16" text-anchor="middle" x="165" y="187.5">
f
</text>
<text dominant-baseline="middle" fill="#D4D4D4" font-family="monospace" font-size="16" text-anchor="middle" x="175" y="187.5">
l
</text>
<text dominant-baseline="middle" fill="#D4D4D4" font-family="monospace" font-size="16" text-anchor="middle" x="185" y="187.5">
o
</text>
<text dominant-baseline="middle" fill="#D4D4D4" font-family="monospace" font-size="16" text-anchor="middle" x="195" y="187.5">
w
</text>
<text dominant-baseline="middle" fill="#D4D4D4" font-family="monospace" font-size="16" text-anchor="middle" x="225" y="187.5">
u
</text>
<text dominant-baseline="middle" fill="#D4D4D4" font-family="monospace" font-size="16" text-anchor="middle" x="235" y="187.5">
n
</text>
<text dominant-baseline="middle" fill="#D4D4D4" font-family="monospace" font-size="16" text-anchor="middle" x="245" y="187.5">
d
</text>
<text dominant-baseline="middle" fill="#D4D4D4" font-family="monospace" font-size="16" text-anchor="middle" x="255" y="187.5">
e
</text>
<text dominant-baseline="middle" fill="#D4D4D4" font-family="monospace" font-size="16" text-anchor="middle" x="265" y="187.5">
r
</text>
<text dominant-baseline="middle" fill="#D4D4D4" font-family="monospace" font-size="16" text-anchor="middle" x="275" y="187.5">
f
</text>
<text dominant-baseline="middle" fill="#D4D4D4" font-family="monospace" font-size="16" text-anchor="middle" x="285" y="187.5">
l
</text>
<text dominant-baseline="middle" fill="#D4D4D4" font-family="monospace" font-size="16" text-anchor="middle" x="295" y="187.5">
o
</text>
<text dominant-baseline="middle" fill="#D4D4D4" font-family="monospace" font-size="16" text-anchor="middle" x="305" y="187.5">
w
</text>
</svg>