<svg viewBox="0 0 1000 600" xmlns="http://www.w3.org/2000/svg">
<path d="M95.74456,52.844654 M95.743996,52.38013 C144.47754,55.076206,193.89938,54.565853,233.41696,52.22383 M94.915375,52.781723 C130.27632,50.576687,165.82991,51.082767,234.59538,51.872284 M324.42392,50.665623 M326.02335,53.846222 C355.44443,55.621017,385.07794,53.288116,466.17606,52.41416 M325.60617,51.55343 C355.6204,54.725006,388.6817,55.27583,465.05496,53.310745 M44.66119,97.63971 M43.265625,95.64855 C53.85902,98.89346,60.582268,96.43896,84.156395,99.23888 M44.14545,96.98554 C58.447243,97.83909,73.88076,97.29327,85.5513,97.78921 M235.96246,96.064766 M236.71315,96.26987 C256.94702,100.21655,283.42447,99.90281,314.43524,98.95294 M234.80542,98.093376 C259.56033,98.27559,284.7426,97.88706,314.81134,98.37204 M464.5898,97.30452 M466.96298,97.981514 C482.11038,97.60142,496.90677,98.58905,514.8488,96.39453 M464.29395,98.43625 C481.6406,98.333,497.75693,97.48167,515.80115,96.7629 M95.21955,53.29533 M93.82482,54.257324 C97.232956,76.06304,97.47969,97.34306,93.29181,144.4187 M95.912544,53.337383 C95.871666,80.7466,95.3075,109.4137,94.30544,142.932 M236.29182,54.12585 M235.69107,51.974155 C234.63718,80.82494,236.66202,105.625374,234.87903,141.06548 M234.94087,51.84516 C233.67558,73.94498,232.3828,96.60289,235.5351,143.36293 M93.30957,140.79294 M94.63829,141.06416 C138.21133,140.31705,180.6531,142.5876,233.31133,144.49333 M95.75447,142.01277 C131.70975,139.53265,168.0729,141.09985,235.25706,142.35681 M326.54767,50.620556 M324.78952,51.629578 C325.5645,74.16727,324.58554,94.66521,323.40445,141.44157 M325.43634,53.0892 C327.46313,84.39771,326.9899,114.23987,324.02948,142.75037 M463.4081,52.359604 M466.46817,53.40014 C464.70047,86.855446,463.25888,119.54808,463.22644,141.76189 M465.9092,53.156116 C463.34528,85.064644,463.72937,119.573784,465.5663,142.56023 M323.54922,142.66618 M326.8341,141.34375 C371.1425,146.25395,417.27255,146.01692,464.2234,143.89517 M324.71463,142.91388 C376.72733,141.78258,427.54285,141.4495,464.00964,141.56998 M46.936977,98.64867 M45.734726,96.66842 C44.327633,116.6919,45.44305,133.33289,46.137257,170.98438 M44.80832,98.30498 C44.93425,119.709305,44.21877,143.83824,44.453346,172.23712 M515.6045,95.91769 M516.8961,97.42845 C511.7149,122.21134,513.76263,148.66585,516.42426,172.17358 M514.20557,97.39304 C514.7673,126.57652,515.4331,155.55898,514.11505,172.45053 M46.963734,173.34218 M45.541912,172.29213 C145.13947,170.91965,246.94507,172.42035,514.64026,172.87767 M45.380608,172.15208 C228.4125,169.29176,411.21695,169.44365,514.99194,172.1502 M83.98638,93.0466 M84.17135,92.93094 C86.5497,94.33483,90.4823,95.58806,94.42047,97.48852 M85.4556,92.90218 C88.82242,95.094444,91.369865,96.58372,94.921906,97.090324 M96.04941,97.81759 C91.95212,98.82719,90.92057,98.71838,85.77272,102.489395 M94.77698,97.46066 C92.01697,99.05525,88.627846,100.13429,84.69876,101.85917 M84.33106,101.90846 C84.92005,99.38116,85.27687,96.546875,84.11182,92.30369 M85.28281,101.88213 C85.165825,98.64051,85.58029,96.11758,84.735725,92.6617 M315.54874,92.4857 M315.93906,93.864716 C318.995,95.094444,322.7428,95.60323,325.10828,97.98098 M315.11697,93.01754 C319.02573,94.84316,322.7847,97.12209,325.35126,97.00539 M324.60614,98.58984 C322.5134,99.789024,319.89804,99.6162,315.69125,101.69417 M324.72034,97.44577 C321.94812,98.681366,318.73346,100.49566,314.66714,101.92918 M315.4978,101.97183 C314.52567,99.78193,315.4597,97.42328,314.5224,92.50923 M314.73856,101.95828 C314.88004,100.11262,314.76443,97.89984,314.56372,92.680214" fill="none" stroke="#ffffffff" stroke-width="1"/>
<text dominant-baseline="middle" fill="#ffffffff" font-family="monospace" font-size="16" text-anchor="middle" x="115" y="67.5">
T
</text>
<text dominant-baseline="middle" fill="#ffffffff" font-family="monospace" font-size="16" text-anchor="middle" x="125" y="67.5">
h
</text>
<text dominant-baseline="middle" fill="#ffffffff" font-family="monospace" font-size="16" text-anchor="middle" x="135" y="67.5">
i
</text>
<text dominant-baseline="middle" fill="#ffffffff" font-family="monospace" font-size="16" text-anchor="middle" x="145" y="67.5">
n
</text>
<text dominant-baseline="middle" fill="#ffffffff" font-family="monospace" font-size="16" text-anchor="middle" x="155" y="67.5">
g
</text>
<text dominant-baseline="middle" fill="#ffffffff" font-family="monospace" font-size="16" text-anchor="middle" x="175" y="67.5">
1
</text>
<text dominant-baseline="middle" fill="#ffffffff" font-family="monospace" font-size="16" text-anchor="middle" x="345" y="67.5">
T
</text>
<text dominant-baseline="middle" fill="#ffffffff" font-family="monospace" font-size="16" text-anchor="middle" x="355" y="67.5">
h
</text>
<text dominant-baseline="middle" fill="#ffffffff" font-family="monospace" font-size="16" text-anchor="middle" x="365" y="67.5">
i
</text>
<text dominant-baseline="middle" fill="#ffffffff" font-family="monospace" font-size="16" text-anchor="middle" x="375" y="67.5">
n
</text>
<text dominant-baseline="middle" fill="#ffffffff" font-family="monospace" font-size="16" text-anchor="middle" x="385" y="67.5">
g
</text>
<text dominant-baseline="middle" fill="#ffffffff" font-family="monospace" font-size="16" text-anchor="middle" x="405" y="67.5">
2
</text>
<text dominant-baseline="middle" fill="#ffffffff" font-family="monospace" font-size="16" text-anchor="middle" x="105" y="97.5">
i
</text>
<text dominant-baseline="middle" fill="#ffffffff" font-family="monospace" font-size="16" text-anchor="middle" x="115" y="97.5">
n
</text>
<text dominant-baseline="middle" fill="#ffffffff" font-family="monospace" font-size="16" text-anchor="middle" x="125" y="97.5">
s
</text>
<text dominant-baseline="middle" fill="#ffffffff" font-family="monospace" font-size="16" text-anchor="middle" x="195" y="97.5">
o
</text>
<text dominant-baseline="middle" fill="#ffffffff" font-family="monospace" font-size="16" text-anchor="middle" x="205" y="97.5">
u
</text>
<text dominant-baseline="middle" fill="#ffffffff" font-family="monospace" font-size="16" text-anchor="middle" x="215" y="97.5">
t
</text>
<text dominant-baseline="middle" fill="#ffffffff" font-family="monospace" font-size="16" text-anchor="middle" x="225" y="97.5">
s
</text>
<text dominant-baseline="middle" fill="#ffffffff" font-family="monospace" font-size="16" text-anchor="middle" x="335" y="97.5">
i
</text>
<text dominant-baseline="middle" fill="#ffffffff" font-family="monospace" font-size="16" text-anchor="middle" x="345" y="97.5">
n
</text>
<text dominant-baseline="middle" fill="#ffffffff" font-family="monospace" font-size="16" text-anchor="middle" x="355" y="97.5">
s
</text>
<text dominant-baseline="middle" fill="#ffffffff" font-family="monospace" font-size="16" text-anchor="middle" x="425" y="97.5">
o
</text>
<text dominant-baseline="middle" fill="#ffffffff" font-family="monospace" font-size="16" text-anchor="middle" x="435" y="97.5">
u
</text>
<text dominant-baseline="middle" fill="#ffffffff" font-family="monospace" font-size="16" text-anchor="middle" x="445" y="97.5">
t
</text>
<text dominant-baseline="middle" fill="#ffffffff" font-family="monospace" font-size="16" text-anchor="middle" x="455" y="97.5">
s
</text>
</svg>