<svg viewBox="0 0 1000 600" xmlns="http://www.w3.org/2000/svg">
<path d="M104.90647,110.79789 M105.45567,110.90444 C161.12694,114.97005,216.14871,115.93437,326.2706,112.72486 M105.70861,112.75237 C150.06207,109.98207,194.66623,111.07354,324.23752,112.46921 M106.70377,113.505554 M106.8945,112.61648 C102.65248,151.91214,102.72936,192.68109,104.1081,231.49365 M104.40127,112.64839 C105.922516,149.02638,105.30972,183.90385,105.08708,232.7795 M323.51563,110.578384 M326.7721,112.17792 C324.32834,150.00302,325.9622,186.74614,324.5856,233.97945 M325.62988,112.901955 C324.5595,143.57,323.61154,177.16783,324.24203,231.90163 M104.96713,233.66489 M103.510544,232.3889 C172.07413,231.25099,241.97446,229.74582,323.38354,230.86253 M104.41442,232.41666 C180.06493,233.01947,254.77293,232.46098,325.62436,232.61906" fill="none" stroke="white" stroke-width="1"/>
<path d="M54.21572,143.84438 M53.373795,143.6071 C64.82644,141.94992,74.032776,141.8626,96.70024,143.36308 M55.860897,143.03789 C69.25762,142.89304,82.5615,142.06223,94.538185,141.73131 M53.168045,141.86661 M55.050526,141.29306 C56.487034,157.22511,54.286022,171.44005,55.084915,187.44815 M55.790432,141.72792 C56.328087,152.2909,55.476322,162.46771,55.32956,187.49461" fill="none" stroke="white" stroke-width="1"/>
<path d="M90.74456,139.84465 M90.38838,139.43742 C93.656006,141.07607,97.342926,141.86124,99.17363,142.35583 M89.955826,139.64706 C92.60102,140.18681,95.38765,141.20111,99.78878,142.17232 M100.823586,141.90341 C97.76722,143.84819,94.63288,144.75304,89.80034,145.07619 M99.87307,141.99785 C96.72583,142.93155,92.388596,144.25755,90.40864,145.54301 M90.041916,144.92595 C90.09181,143.60109,89.3824,141.2786,90.20582,139.89166 M90.26083,145.65266 C89.83155,144.03076,89.81258,142.20386,89.823494,139.68304" fill="none" stroke="white" stroke-width="1"/>
<path d="M50.74456,184.84465 M50.29054,184.45319 C51.79029,186.96324,53.67882,188.86711,54.381805,190.39215 M49.966953,184.61002 C51.274307,185.98988,52.73864,187.68773,54.84199,190.25487 M55.616116,190.05371 C56.86567,189.48262,57.905663,187.9237,59.850636,184.18295 M54.905045,190.12434 C57.035877,188.0529,58.26941,186.08682,60.3057,184.53218 M60.069855,183.54324 C57.2602,184.35623,53.022865,183.5404,50.343025,185.15277 M60.43472,184.75446 C56.98619,184.58505,54.3364,184.1584,49.70582,184.80507" fill="none" stroke="white" stroke-width="1"/>
<path d="M334.99585,143.76355 M336.93823,143.49196 C344.60083,143.95374,353.03656,142.68968,366.9197,141.1626 M335.98242,142.15036 C344.52417,141.5196,351.80115,141.40117,365.85446,141.92972 M366.7939,141.57167 M366.57034,143.99715 C366.04297,157.74028,364.58533,173.51494,366.6181,202.79924 M364.2828,142.2152 C364.92178,158.58798,364.78976,173.88776,365.76245,203.04655 M333.41476,202.96492 M333.99713,201.36877 C340.1509,202.32979,349.28854,204.13042,366.42557,201.31775 M335.46497,202.31989 C346.79907,203.2066,357.74673,203.11887,364.44412,202.93878" fill="none" stroke="white" stroke-width="1"/>
<path d="M333.575,138.09889 C334.53726,137.74042,336.38126,137.61855,337.2319,137.92635 C338.08255,138.23415,338.30203,139.13123,338.67896,139.94571 C339.05588,140.7602,339.45242,141.74496,339.49344,142.8132 C339.53445,143.88144,339.64728,145.52188,338.925,146.35513 C338.2027,147.18839,336.34753,147.68794,335.15973,147.81274 C333.97192,147.93755,332.55225,147.93076,331.79813,147.10394 C331.044,146.27713,330.9308,144.1048,330.63507,142.8519 C330.33936,141.599,329.69205,140.59067,330.0238,139.58653 C330.35556,138.5824,331.87476,137.23373,332.62555,136.82706 C333.37634,136.42038,334.26617,136.81364,334.5286,137.14648 M334.6637,138.34618 C335.50153,138.19623,337.57562,137.33504,338.4135,137.68541 C339.2514,138.03578,339.39713,139.42404,339.6911,140.44844 C339.98508,141.47284,340.91925,142.80293,340.17734,143.83183 C339.43542,144.86073,336.23947,146.0499,335.2397,146.62183 C334.2399,147.19376,334.9616,147.367,334.17862,147.26341 C333.39563,147.15982,331.27408,146.96678,330.54175,146.00029 C329.80942,145.0338,329.7909,142.64095,329.7847,141.4645 C329.7785,140.28804,329.61743,139.8251,330.5046,138.94157 C331.39178,138.05804,334.54547,136.30705,335.1078,136.16336 C335.6701,136.01967,333.69244,137.87415,333.87857,138.0794" fill="none" stroke="white" stroke-width="1"/>
<path d="M333.575,198.09889 C334.53726,197.74042,336.38126,197.61855,337.2319,197.92635 C338.08255,198.23415,338.30203,199.13123,338.67896,199.94571 C339.05588,200.7602,339.45242,201.74496,339.49344,202.8132 C339.53445,203.88144,339.64728,205.52188,338.925,206.35513 C338.2027,207.18839,336.34753,207.68794,335.15973,207.81274 C333.97192,207.93755,332.55225,207.93076,331.79813,207.10394 C331.044,206.27713,330.9308,204.1048,330.63507,202.8519 C330.33936,201.599,329.69205,200.59067,330.0238,199.58653 C330.35556,198.5824,331.87476,197.23373,332.62555,196.82706 C333.37634,196.42038,334.26617,196.81364,334.5286,197.14648 M334.6637,198.34618 C335.50153,198.19623,337.57562,197.33504,338.4135,197.68541 C339.2514,198.03578,339.39713,199.42404,339.6911,200.44844 C339.98508,201.47284,340.91925,202.80293,340.17734,203.83183 C339.43542,204.86073,336.23947,206.0499,335.2397,206.62183 C334.2399,207.19376,334.9616,207.367,334.17862,207.26341 C333.39563,207.15982,331.27408,206.96678,330.54175,206.00029 C329.80942,205.0338,329.7909,202.64095,329.7847,201.4645 C329.7785,200.28804,329.61743,199.8251,330.5046,198.94157 C331.39178,198.05804,334.54547,196.30705,335.1078,196.16336 C335.6701,196.01967,333.69244,197.87415,333.87857,198.0794" fill="none" stroke="white" stroke-width="1"/>
<path d="M513.1325,308.31723 M514.9235,307.6527 C562.5611,305.55945,611.45386,303.21466,734.314,307.80426 M514.1498,308.22473 C586.1777,308.15543,657.0298,307.62476,735.5942,306.6955 M514.52844,306.04395 M516.9561,306.3483 C513.2755,337.4739,513.74426,368.4193,513.27655,425.8058 M515.1625,307.9673 C513.5203,338.8448,513.8726,369.42798,515.83875,428.27576 M736.31555,307.09726 M734.18933,306.03537 C737.70636,350.17755,736.5169,394.23837,735.6276,428.86108 M735.5679,308.46677 C734.61206,335.38602,734.5607,365.86505,734.4358,428.4565 M516.5363,427.41556 M513.93024,429.09958 C582.0472,426.5688,652.494,424.63336,734.67413,426.95233 M515.0727,427.3144 C583.7264,425.02557,652.14355,425.13644,735.49664,427.14188" fill="none" stroke="white" stroke-width="1"/>
<path d="M466.66507,338.1931 M465.13376,339.28717 C473.77563,336.72363,485.66306,339.1113,506.57,339.24435 M464.9259,336.7332 C477.98288,338.0271,490.2676,338.86554,505.2954,338.44092 M463.0716,337.9826 M464.57693,335.79352 C464.44946,346.7604,466.58557,356.13254,466.77142,382.47098 M464.90237,337.91003 C466.03696,354.58398,465.38995,371.3002,465.6319,382.14035" fill="none" stroke="white" stroke-width="1"/>
<path d="M500.74457,334.84467 M500.38837,334.43744 C503.656,336.07605,507.34293,336.86124,509.17365,337.35583 M499.9558,334.64706 C502.601,335.18683,505.38763,336.2011,509.7888,337.17233 M510.82358,336.9034 C507.76724,338.8482,504.63287,339.75302,499.80035,340.0762 M509.87308,336.99786 C506.72586,337.93155,502.38858,339.25754,500.40863,340.543 M500.0419,339.92593 C500.09183,338.6011,499.3824,336.27863,500.2058,334.89166 M500.26083,340.65268 C499.83154,339.03076,499.81256,337.2039,499.8235,334.68304" fill="none" stroke="white" stroke-width="1"/>
<path d="M460.74457,379.84467 M460.29053,379.4532 C461.79025,381.9633,463.6788,383.86713,464.3818,385.39215 M459.96695,379.61002 C461.2743,380.98987,462.73862,382.68774,464.84198,385.25488 M465.61612,385.0537 C466.8657,384.48264,467.90567,382.92374,469.85065,379.18295 M464.90503,385.12436 C467.0359,383.0529,468.2694,381.0868,470.3057,379.53217 M470.06985,378.54324 C467.26022,379.35623,463.02286,378.5404,460.34302,380.15277 M470.43472,379.75446 C466.98618,379.58505,464.3364,379.15842,459.7058,379.80508" fill="none" stroke="white" stroke-width="1"/>
<path d="M743.4747,336.36017 M744.7363,335.61008 C757.19904,339.0119,767.109,338.3301,775.25464,339.22205 M744.8903,337.6476 C753.6335,337.76578,761.59106,337.1845,774.9397,337.95322 M776.02075,337.2408 M775.76416,338.85184 C775.39716,358.1429,772.53876,377.37878,776.53546,396.2988 M775.58374,338.4685 C775.31213,358.83853,776.6128,379.7431,775.59485,397.03955 M746.16174,399.3616 M744.0931,396.01282 C755.1025,398.9246,769.1241,399.04016,773.3008,398.4989 M745.3057,398.1557 C756.7148,396.13354,768.04645,396.9755,775.68726,396.96548" fill="none" stroke="white" stroke-width="1"/>
<path d="M743.5751,333.0989 C744.53735,332.74045,746.3812,332.61856,747.2319,332.92636 C748.0825,333.23416,748.302,334.13123,748.67896,334.9457 C749.0559,335.7602,749.4524,336.74496,749.4934,337.8132 C749.5344,338.88144,749.6473,340.52188,748.925,341.35513 C748.2027,342.1884,746.34753,342.68793,745.1597,342.8127 C743.9719,342.9375,742.55225,342.93076,741.79816,342.10394 C741.04407,341.27713,740.9307,339.10477,740.635,337.85187 C740.3393,336.59897,739.692,335.59064,740.0238,334.58652 C740.3556,333.5824,741.87476,332.23373,742.62555,331.82706 C743.37634,331.42038,744.2662,331.81366,744.5286,332.1465 M744.6637,333.34616 C745.5015,333.19623,747.5756,332.33505,748.4135,332.68542 C749.2514,333.0358,749.3971,334.42407,749.6911,335.44846 C749.9851,336.47284,750.91925,337.80292,750.17737,338.83182 C749.4355,339.86072,746.2395,341.0499,745.2397,341.62183 C744.23987,342.19376,744.96155,342.367,744.1786,342.26343 C743.3956,342.15985,741.27405,341.96677,740.54175,341.00027 C739.80945,340.03378,739.7909,337.64093,739.7847,336.46448 C739.77856,335.28802,739.6175,334.82507,740.50464,333.94156 C741.3918,333.05804,744.5454,331.30707,745.1077,331.16336 C745.67004,331.01965,743.6924,332.8741,743.87854,333.07938" fill="none" stroke="white" stroke-width="1"/>
<path d="M743.5751,393.0989 C744.53735,392.74045,746.3812,392.61856,747.2319,392.92636 C748.0825,393.23416,748.302,394.13123,748.67896,394.9457 C749.0559,395.7602,749.4524,396.74496,749.4934,397.8132 C749.5344,398.88144,749.6473,400.52188,748.925,401.35513 C748.2027,402.1884,746.34753,402.68793,745.1597,402.8127 C743.9719,402.9375,742.55225,402.93076,741.79816,402.10394 C741.04407,401.27713,740.9307,399.10477,740.635,397.85187 C740.3393,396.59897,739.692,395.59064,740.0238,394.58652 C740.3556,393.5824,741.87476,392.23373,742.62555,391.82706 C743.37634,391.42038,744.2662,391.81366,744.5286,392.1465 M744.6637,393.34616 C745.5015,393.19623,747.5756,392.33505,748.4135,392.68542 C749.2514,393.0358,749.3971,394.42407,749.6911,395.44846 C749.9851,396.47284,750.91925,397.80292,750.17737,398.83182 C749.4355,399.86072,746.2395,401.0499,745.2397,401.62183 C744.23987,402.19376,744.96155,402.367,744.1786,402.26343 C743.3956,402.15985,741.27405,401.96677,740.54175,401.00027 C739.80945,400.03378,739.7909,397.64093,739.7847,396.46448 C739.77856,395.28802,739.6175,394.82507,740.50464,393.94156 C741.3918,393.05804,744.5454,391.30707,745.1077,391.16336 C745.67004,391.01965,743.6924,392.8741,743.87854,393.07938" fill="none" stroke="white" stroke-width="1"/>
<path d="M106.74888,411.39227 M105.04335,410.80725 C182.89754,409.39627,264.61398,409.0655,325.07843,411.54352 M104.39394,412.86505 C154.60808,410.88397,205.63184,410.74738,325.55548,412.7504 M106.47739,413.15106 M106.39001,413.91183 C104.91688,446.5813,105.27119,481.04892,103.1043,532.57416 M105.443115,413.3062 C106.37106,450.81845,107.54754,487.72665,104.37941,532.28436 M323.50958,414.1409 M325.16586,411.22772 C325.36017,455.26318,322.13727,499.97073,324.35208,533.317 M324.36618,411.7691 C325.2124,451.74777,325.96347,491.23105,325.78693,531.8093 M103.620514,533.57495 M106.639206,532.6829 C161.77878,535.081,219.5032,534.1306,324.57364,532.21155 M104.28829,532.78845 C169.66599,531.37555,236.06308,532.99146,324.27502,531.92865" fill="none" stroke="white" stroke-width="1"/>
<path d="M56.52192,441.5874 M54.08719,444.36356 C65.51643,441.045,73.73208,441.4649,95.37255,440.58694 M54.626545,442.30862 C70.80505,443.1879,86.74354,442.15213,95.93768,442.27737 M54.9693,440.84418 M54.84592,441.0926 C54.840446,456.18964,55.5512,470.5166,55.93535,487.51212 M55.42866,442.74988 C56.016006,453.23645,55.48554,465.37106,54.464226,487.29837" fill="none" stroke="white" stroke-width="1"/>
<path d="M90.74456,439.84467 M90.38838,439.43744 C93.656006,441.07605,97.342926,441.86124,99.17363,442.35583 M89.955826,439.64706 C92.60102,440.18683,95.38765,441.2011,99.78878,442.17233 M100.823586,441.9034 C97.76722,443.8482,94.63288,444.75302,89.80034,445.0762 M99.87307,441.99786 C96.72583,442.93155,92.388596,444.25754,90.40864,445.543 M90.041916,444.92593 C90.09181,443.6011,89.3824,441.27863,90.20582,439.89166 M90.26083,445.65268 C89.83155,444.03076,89.81258,442.2039,89.823494,439.68304" fill="none" stroke="white" stroke-width="1"/>
<path d="M50.74456,484.84467 M50.29054,484.4532 C51.79029,486.9633,53.67882,488.86713,54.381805,490.39215 M49.966953,484.61002 C51.274307,485.98987,52.73864,487.68774,54.84199,490.25488 M55.616116,490.0537 C56.86567,489.48264,57.905663,487.92374,59.850636,484.18295 M54.905045,490.12436 C57.035877,488.0529,58.26941,486.0868,60.3057,484.53217 M60.069855,483.54324 C57.2602,484.35623,53.022865,483.5404,50.343025,485.15277 M60.43472,484.75446 C56.98619,484.58505,54.3364,484.15842,49.70582,484.80508" fill="none" stroke="white" stroke-width="1"/>
<path d="M333.58853,442.5733 M336.91977,442.02032 C346.58054,441.73,357.28806,443.9745,366.48615,441.37256 M335.46118,441.93018 C344.03223,442.04828,350.51053,442.37067,365.86163,443.126 M364.4048,443.36874 M363.69537,441.70587 C363.68958,456.5573,364.33743,470.705,366.48218,501.76196 M365.66757,442.13202 C365.3525,459.63956,365.5647,476.39944,365.80997,502.26932 M334.69913,500.55597 M334.1971,504.34045 C344.31277,502.6831,358.33984,502.94208,364.48752,501.72058 M334.73038,501.83554 C341.86703,503.527,349.79282,503.31857,365.61316,502.17157" fill="none" stroke="white" stroke-width="1"/>
<path d="M333.575,438.0989 C334.53726,437.74045,336.38126,437.61856,337.2319,437.92636 C338.08255,438.23416,338.30203,439.13123,338.67896,439.9457 C339.05588,440.7602,339.45242,441.74496,339.49344,442.8132 C339.53445,443.88144,339.64728,445.52188,338.925,446.35513 C338.2027,447.1884,336.34753,447.68793,335.15973,447.8127 C333.97192,447.9375,332.55225,447.93076,331.79813,447.10394 C331.044,446.27713,330.9308,444.10477,330.63507,442.85187 C330.33936,441.59897,329.69205,440.59064,330.0238,439.58652 C330.35556,438.5824,331.87476,437.23373,332.62555,436.82706 C333.37634,436.42038,334.26617,436.81366,334.5286,437.1465 M334.6637,438.34616 C335.50153,438.19623,337.57562,437.33505,338.4135,437.68542 C339.2514,438.0358,339.39713,439.42407,339.6911,440.44846 C339.98508,441.47284,340.91925,442.80292,340.17734,443.83182 C339.43542,444.86072,336.23947,446.0499,335.2397,446.62183 C334.2399,447.19376,334.9616,447.367,334.17862,447.26343 C333.39563,447.15985,331.27408,446.96677,330.54175,446.00027 C329.80942,445.03378,329.7909,442.64093,329.7847,441.46448 C329.7785,440.28802,329.61743,439.82507,330.5046,438.94156 C331.39178,438.05804,334.54547,436.30707,335.1078,436.16336 C335.6701,436.01965,333.69244,437.8741,333.87857,438.07938" fill="none" stroke="white" stroke-width="1"/>
<path d="M333.575,498.0989 C334.53726,497.74045,336.38126,497.61856,337.2319,497.92636 C338.08255,498.23416,338.30203,499.13123,338.67896,499.9457 C339.05588,500.7602,339.45242,501.74496,339.49344,502.8132 C339.53445,503.88144,339.64728,505.52188,338.925,506.35513 C338.2027,507.1884,336.34753,507.68793,335.15973,507.8127 C333.97192,507.9375,332.55225,507.93076,331.79813,507.10394 C331.044,506.27713,330.9308,504.10477,330.63507,502.85187 C330.33936,501.59897,329.69205,500.59064,330.0238,499.58652 C330.35556,498.5824,331.87476,497.23373,332.62555,496.82706 C333.37634,496.42038,334.26617,496.81366,334.5286,497.1465 M334.6637,498.34616 C335.50153,498.19623,337.57562,497.33505,338.4135,497.68542 C339.2514,498.0358,339.39713,499.42407,339.6911,500.44846 C339.98508,501.47284,340.91925,502.80292,340.17734,503.83182 C339.43542,504.86072,336.23947,506.0499,335.2397,506.62183 C334.2399,507.19376,334.9616,507.367,334.17862,507.26343 C333.39563,507.15985,331.27408,506.96677,330.54175,506.00027 C329.80942,505.03378,329.7909,502.64093,329.7847,501.46448 C329.7785,500.28802,329.61743,499.82507,330.5046,498.94156 C331.39178,498.05804,334.54547,496.30707,335.1078,496.16336 C335.6701,496.01965,333.69244,497.8741,333.87857,498.07938" fill="none" stroke="white" stroke-width="1"/>
<text dominant-baseline="middle" fill="#D4D4D4" font-family="monospace" font-size="16" text-anchor="middle" x="125" y="142.5">
d
</text>
<text dominant-baseline="middle" fill="#D4D4D4" font-family="monospace" font-size="16" text-anchor="middle" x="135" y="142.5">
a
</text>
<text dominant-baseline="middle" fill="#D4D4D4" font-family="monospace" font-size="16" text-anchor="middle" x="145" y="142.5">
t
</text>
<text dominant-baseline="middle" fill="#D4D4D4" font-family="monospace" font-size="16" text-anchor="middle" x="155" y="142.5">
a
</text>
<text dominant-baseline="middle" fill="#D4D4D4" font-family="monospace" font-size="16" text-anchor="middle" x="275" y="142.5">
d
</text>
<text dominant-baseline="middle" fill="#D4D4D4" font-family="monospace" font-size="16" text-anchor="middle" x="285" y="142.5">
a
</text>
<text dominant-baseline="middle" fill="#D4D4D4" font-family="monospace" font-size="16" text-anchor="middle" x="295" y="142.5">
t
</text>
<text dominant-baseline="middle" fill="#D4D4D4" font-family="monospace" font-size="16" text-anchor="middle" x="305" y="142.5">
a
</text>
<text dominant-baseline="middle" fill="#D4D4D4" font-family="monospace" font-size="16" text-anchor="middle" x="95" y="172.5">
o
</text>
<text dominant-baseline="middle" fill="#D4D4D4" font-family="monospace" font-size="16" text-anchor="middle" x="125" y="172.5">
f
</text>
<text dominant-baseline="middle" fill="#D4D4D4" font-family="monospace" font-size="16" text-anchor="middle" x="135" y="172.5">
u
</text>
<text dominant-baseline="middle" fill="#D4D4D4" font-family="monospace" font-size="16" text-anchor="middle" x="145" y="172.5">
l
</text>
<text dominant-baseline="middle" fill="#D4D4D4" font-family="monospace" font-size="16" text-anchor="middle" x="155" y="172.5">
l
</text>
<text dominant-baseline="middle" fill="#D4D4D4" font-family="monospace" font-size="16" text-anchor="middle" x="275" y="172.5">
n
</text>
<text dominant-baseline="middle" fill="#D4D4D4" font-family="monospace" font-size="16" text-anchor="middle" x="285" y="172.5">
e
</text>
<text dominant-baseline="middle" fill="#D4D4D4" font-family="monospace" font-size="16" text-anchor="middle" x="295" y="172.5">
x
</text>
<text dominant-baseline="middle" fill="#D4D4D4" font-family="monospace" font-size="16" text-anchor="middle" x="305" y="172.5">
t
</text>
<text dominant-baseline="middle" fill="#D4D4D4" font-family="monospace" font-size="16" text-anchor="middle" x="335" y="172.5">
&gt;
</text>
<text dominant-baseline="middle" fill="#D4D4D4" font-family="monospace" font-size="16" text-anchor="middle" x="95" y="202.5">
o
</text>
<text dominant-baseline="middle" fill="#D4D4D4" font-family="monospace" font-size="16" text-anchor="middle" x="125" y="202.5">
o
</text>
<text dominant-baseline="middle" fill="#D4D4D4" font-family="monospace" font-size="16" text-anchor="middle" x="135" y="202.5">
v
</text>
<text dominant-baseline="middle" fill="#D4D4D4" font-family="monospace" font-size="16" text-anchor="middle" x="145" y="202.5">
e
</text>
<text dominant-baseline="middle" fill="#D4D4D4" font-family="monospace" font-size="16" text-anchor="middle" x="155" y="202.5">
r
</text>
<text dominant-baseline="middle" fill="#D4D4D4" font-family="monospace" font-size="16" text-anchor="middle" x="165" y="202.5">
f
</text>
<text dominant-baseline="middle" fill="#D4D4D4" font-family="monospace" font-size="16" text-anchor="middle" x="175" y="202.5">
l
</text>
<text dominant-baseline="middle" fill="#D4D4D4" font-family="monospace" font-size="16" text-anchor="middle" x="185" y="202.5">
o
</text>
<text dominant-baseline="middle" fill="#D4D4D4" font-family="monospace" font-size="16" text-anchor="middle" x="195" y="202.5">
w
</text>
<text dominant-baseline="middle" fill="#D4D4D4" font-family="monospace" font-size="16" text-anchor="middle" x="225" y="202.5">
u
</text>
<text dominant-baseline="middle" fill="#D4D4D4" font-family="monospace" font-size="16" text-anchor="middle" x="235" y="202.5">
n
</text>
<text dominant-baseline="middle" fill="#D4D4D4" font-family="monospace" font-size="16" text-anchor="middle" x="245" y="202.5">
d
</text>
<text dominant-baseline="middle" fill="#D4D4D4" font-family="monospace" font-size="16" text-anchor="middle" x="255" y="202.5">
e
</text>
<text dominant-baseline="middle" fill="#D4D4D4" font-family="monospace" font-size="16" text-anchor="middle" x="265" y="202.5">
r
</text>
<text dominant-baseline="middle" fill="#D4D4D4" font-family="monospace" font-size="16" text-anchor="middle" x="275" y="202.5">
f
</text>
<text dominant-baseline="middle" fill="#D4D4D4" font-family="monospace" font-size="16" text-anchor="middle" x="285" y="202.5">
l
</text>
<text dominant-baseline="middle" fill="#D4D4D4" font-family="monospace" font-size="16" text-anchor="middle" x="295" y="202.5">
o
</text>
<text dominant-baseline="middle" fill="#D4D4D4" font-family="monospace" font-size="16" text-anchor="middle" x="305" y="202.5">
w
</text>
<text dominant-baseline="middle" fill="#D4D4D4" font-family="monospace" font-size="16" text-anchor="middle" x="535" y="337.5">
d
</text>
<text dominant-baseline="middle" fill="#D4D4D4" font-family="monospace" font-size="16" text-anchor="middle" x="545" y="337.5">
a
</text>
<text dominant-baseline="middle" fill="#D4D4D4" font-family="monospace" font-size="16" text-anchor="middle" x="555" y="337.5">
t
</text>
<text dominant-baseline="middle" fill="#D4D4D4" font-family="monospace" font-size="16" text-anchor="middle" x="565" y="337.5">
a
</text>
<text dominant-baseline="middle" fill="#D4D4D4" font-family="monospace" font-size="16" text-anchor="middle" x="685" y="337.5">
d
</text>
<text dominant-baseline="middle" fill="#D4D4D4" font-family="monospace" font-size="16" text-anchor="middle" x="695" y="337.5">
a
</text>
<text dominant-baseline="middle" fill="#D4D4D4" font-family="monospace" font-size="16" text-anchor="middle" x="705" y="337.5">
t
</text>
<text dominant-baseline="middle" fill="#D4D4D4" font-family="monospace" font-size="16" text-anchor="middle" x="715" y="337.5">
a
</text>
<text dominant-baseline="middle" fill="#D4D4D4" font-family="monospace" font-size="16" text-anchor="middle" x="505" y="367.5">
o
</text>
<text dominant-baseline="middle" fill="#D4D4D4" font-family="monospace" font-size="16" text-anchor="middle" x="535" y="367.5">
f
</text>
<text dominant-baseline="middle" fill="#D4D4D4" font-family="monospace" font-size="16" text-anchor="middle" x="545" y="367.5">
u
</text>
<text dominant-baseline="middle" fill="#D4D4D4" font-family="monospace" font-size="16" text-anchor="middle" x="555" y="367.5">
l
</text>
<text dominant-baseline="middle" fill="#D4D4D4" font-family="monospace" font-size="16" text-anchor="middle" x="565" y="367.5">
l
</text>
<text dominant-baseline="middle" fill="#D4D4D4" font-family="monospace" font-size="16" text-anchor="middle" x="685" y="367.5">
n
</text>
<text dominant-baseline="middle" fill="#D4D4D4" font-family="monospace" font-size="16" text-anchor="middle" x="695" y="367.5">
e
</text>
<text dominant-baseline="middle" fill="#D4D4D4" font-family="monospace" font-size="16" text-anchor="middle" x="705" y="367.5">
x
</text>
<text dominant-baseline="middle" fill="#D4D4D4" font-family="monospace" font-size="16" text-anchor="middle" x="715" y="367.5">
t
</text>
<text dominant-baseline="middle" fill="#D4D4D4" font-family="monospace" font-size="16" text-anchor="middle" x="745" y="367.5">
&gt;
</text>
<text dominant-baseline="middle" fill="#D4D4D4" font-family="monospace" font-size="16" text-anchor="middle" x="505" y="397.5">
o
</text>
<text dominant-baseline="middle" fill="#D4D4D4" font-family="monospace" font-size="16" text-anchor="middle" x="535" y="397.5">
o
</text>
<text dominant-baseline="middle" fill="#D4D4D4" font-family="monospace" font-size="16" text-anchor="middle" x="545" y="397.5">
v
</text>
<text dominant-baseline="middle" fill="#D4D4D4" font-family="monospace" font-size="16" text-anchor="middle" x="555" y="397.5">
e
</text>
<text dominant-baseline="middle" fill="#D4D4D4" font-family="monospace" font-size="16" text-anchor="middle" x="565" y="397.5">
r
</text>
<text dominant-baseline="middle" fill="#D4D4D4" font-family="monospace" font-size="16" text-anchor="middle" x="575" y="397.5">
f
</text>
<text dominant-baseline="middle" fill="#D4D4D4" font-family="monospace" font-size="16" text-anchor="middle" x="585" y="397.5">
l
</text>
<text dominant-baseline="middle" fill="#D4D4D4" font-family="monospace" font-size="16" text-anchor="middle" x="595" y="397.5">
o
</text>
<text dominant-baseline="middle" fill="#D4D4D4" font-family="monospace" font-size="16" text-anchor="middle" x="605" y="397.5">
w
</text>
<text dominant-baseline="middle" fill="#D4D4D4" font-family="monospace" font-size="16" text-anchor="middle" x="635" y="397.5">
u
</text>
<text dominant-baseline="middle" fill="#D4D4D4" font-family="monospace" font-size="16" text-anchor="middle" x="645" y="397.5">
n
</text>
<text dominant-baseline="middle" fill="#D4D4D4" font-family="monospace" font-size="16" text-anchor="middle" x="655" y="397.5">
d
</text>
<text dominant-baseline="middle" fill="#D4D4D4" font-family="monospace" font-size="16" text-anchor="middle" x="665" y="397.5">
e
</text>
<text dominant-baseline="middle" fill="#D4D4D4" font-family="monospace" font-size="16" text-anchor="middle" x="675" y="397.5">
r
</text>
<text dominant-baseline="middle" fill="#D4D4D4" font-family="monospace" font-size="16" text-anchor="middle" x="685" y="397.5">
f
</text>
<text dominant-baseline="middle" fill="#D4D4D4" font-family="monospace" font-size="16" text-anchor="middle" x="695" y="397.5">
l
</text>
<text dominant-baseline="middle" fill="#D4D4D4" font-family="monospace" font-size="16" text-anchor="middle" x="705" y="397.5">
o
</text>
<text dominant-baseline="middle" fill="#D4D4D4" font-family="monospace" font-size="16" text-anchor="middle" x="715" y="397.5">
w
</text>
<text dominant-baseline="middle" fill="#D4D4D4" font-family="monospace" font-size="16" text-anchor="middle" x="125" y="442.5">
d
</text>
<text dominant-baseline="middle" fill="#D4D4D4" font-family="monospace" font-size="16" text-anchor="middle" x="135" y="442.5">
a
</text>
<text dominant-baseline="middle" fill="#D4D4D4" font-family="monospace" font-size="16" text-anchor="middle" x="145" y="442.5">
t
</text>
<text dominant-baseline="middle" fill="#D4D4D4" font-family="monospace" font-size="16" text-anchor="middle" x="155" y="442.5">
a
</text>
<text dominant-baseline="middle" fill="#D4D4D4" font-family="monospace" font-size="16" text-anchor="middle" x="275" y="442.5">
d
</text>
<text dominant-baseline="middle" fill="#D4D4D4" font-family="monospace" font-size="16" text-anchor="middle" x="285" y="442.5">
a
</text>
<text dominant-baseline="middle" fill="#D4D4D4" font-family="monospace" font-size="16" text-anchor="middle" x="295" y="442.5">
t
</text>
<text dominant-baseline="middle" fill="#D4D4D4" font-family="monospace" font-size="16" text-anchor="middle" x="305" y="442.5">
a
</text>
<text dominant-baseline="middle" fill="#D4D4D4" font-family="monospace" font-size="16" text-anchor="middle" x="95" y="472.5">
o
</text>
<text dominant-baseline="middle" fill="#D4D4D4" font-family="monospace" font-size="16" text-anchor="middle" x="125" y="472.5">
f
</text>
<text dominant-baseline="middle" fill="#D4D4D4" font-family="monospace" font-size="16" text-anchor="middle" x="135" y="472.5">
u
</text>
<text dominant-baseline="middle" fill="#D4D4D4" font-family="monospace" font-size="16" text-anchor="middle" x="145" y="472.5">
l
</text>
<text dominant-baseline="middle" fill="#D4D4D4" font-family="monospace" font-size="16" text-anchor="middle" x="155" y="472.5">
l
</text>
<text dominant-baseline="middle" fill="#D4D4D4" font-family="monospace" font-size="16" text-anchor="middle" x="275" y="472.5">
n
</text>
<text dominant-baseline="middle" fill="#D4D4D4" font-family="monospace" font-size="16" text-anchor="middle" x="285" y="472.5">
e
</text>
<text dominant-baseline="middle" fill="#D4D4D4" font-family="monospace" font-size="16" text-anchor="middle" x="295" y="472.5">
x
</text>
<text dominant-baseline="middle" fill="#D4D4D4" font-family="monospace" font-size="16" text-anchor="middle" x="305" y="472.5">
t
</text>
<text dominant-baseline="middle" fill="#D4D4D4" font-family="monospace" font-size="16" text-anchor="middle" x="335" y="472.5">
&gt;
</text>
<text dominant-baseline="middle" fill="#D4D4D4" font-family="monospace" font-size="16" text-anchor="middle" x="95" y="502.5">
o
</text>
<text dominant-baseline="middle" fill="#D4D4D4" font-family="monospace" font-size="16" text-anchor="middle" x="125" y="502.5">
o
</text>
<text dominant-baseline="middle" fill="#D4D4D4" font-family="monospace" font-size="16" text-anchor="middle" x="135" y="502.5">
v
</text>
<text dominant-baseline="middle" fill="#D4D4D4" font-family="monospace" font-size="16" text-anchor="middle" x="145" y="502.5">
e
</text>
<text dominant-baseline="middle" fill="#D4D4D4" font-family="monospace" font-size="16" text-anchor="middle" x="155" y="502.5">
r
</text>
<text dominant-baseline="middle" fill="#D4D4D4" font-family="monospace" font-size="16" text-anchor="middle" x="165" y="502.5">
f
</text>
<text dominant-baseline="middle" fill="#D4D4D4" font-family="monospace" font-size="16" text-anchor="middle" x="175" y="502.5">
l
</text>
<text dominant-baseline="middle" fill="#D4D4D4" font-family="monospace" font-size="16" text-anchor="middle" x="185" y="502.5">
o
</text>
<text dominant-baseline="middle" fill="#D4D4D4" font-family="monospace" font-size="16" text-anchor="middle" x="195" y="502.5">
w
</text>
<text dominant-baseline="middle" fill="#D4D4D4" font-family="monospace" font-size="16" text-anchor="middle" x="225" y="502.5">
u
</text>
<text dominant-baseline="middle" fill="#D4D4D4" font-family="monospace" font-size="16" text-anchor="middle" x="235" y="502.5">
n
</text>
<text dominant-baseline="middle" fill="#D4D4D4" font-family="monospace" font-size="16" text-anchor="middle" x="245" y="502.5">
d
</text>
<text dominant-baseline="middle" fill="#D4D4D4" font-family="monospace" font-size="16" text-anchor="middle" x="255" y="502.5">
e
</text>
<text dominant-baseline="middle" fill="#D4D4D4" font-family="monospace" font-size="16" text-anchor="middle" x="265" y="502.5">
r
</text>
<text dominant-baseline="middle" fill="#D4D4D4" font-family="monospace" font-size="16" text-anchor="middle" x="275" y="502.5">
f
</text>
<text dominant-baseline="middle" fill="#D4D4D4" font-family="monospace" font-size="16" text-anchor="middle" x="285" y="502.5">
l
</text>
<text dominant-baseline="middle" fill="#D4D4D4" font-family="monospace" font-size="16" text-anchor="middle" x="295" y="502.5">
o
</text>
<text dominant-baseline="middle" fill="#D4D4D4" font-family="monospace" font-size="16" text-anchor="middle" x="305" y="502.5">
w
</text>
</svg>