<svg viewBox="0 0 1000 600" width="1000px" xmlns="http://www.w3.org/2000/svg">
<rect fill="black" height="600px" stroke="none" width="1000px" x="0.0" y="0.0"/>
<path d="M105.74456,112.84465 M105.644775,112.39612 C182.46591,115.63425,259.88358,115.191956,323.62808,112.26066 M104.92666,112.74415 C160.24313,109.7993,215.72658,110.237885,324.64935,111.95599 M54.42391,140.66562 M56.023354,143.84622 C63.851402,144.47816,71.89193,142.14526,96.17604,142.41417 M55.60617,141.55342 C63.156487,142.80112,73.75393,143.35194,95.05497,143.31075 M54.66119,142.63971 M53.265625,140.64856 C55.969704,153.00015,54.51998,159.74023,54.15639,189.23888 M54.14545,141.98553 C53.699474,158.9002,55.097385,174.14444,55.5513,187.7892 M365.96246,141.06476 M366.71317,141.26987 C362.66107,162.0851,365.5126,179.49081,364.43524,203.95294 M364.80542,143.09337 C363.77582,161.94022,363.6608,180.52464,364.81134,203.37204 M104.58981,112.30452 M106.96298,112.981514 C105.27322,153.14066,103.33317,194.29575,104.848816,231.39453 M104.29395,113.43625 C103.265564,151.2086,103.406525,188.69815,105.80113,231.7629 M325.21954,113.29533 M323.82483,114.257324 C327.77567,143.57655,328.02237,172.37009,323.2918,234.4187 M325.91254,113.33739 C326.25586,150.3129,325.6917,188.54631,324.30545,232.932 M106.291824,234.12585 M105.59891,232.04428 C170.96568,231.88972,239.13905,229.8351,324.89517,231.25679 M104.94875,231.9325 C159.56955,228.16878,212.75299,228.55246,325.46375,233.24785 M513.3096,305.79294 M514.6865,306.25565 C582.2382,305.36166,648.80945,307.32944,733.53656,309.22748 M515.6539,307.07776 C572.4017,303.9399,629.50305,305.29813,735.2228,307.37592 M466.54767,335.62054 M464.78952,336.62958 C473.93457,337.40897,482.6805,336.02585,503.40445,336.4416 M465.43634,338.0892 C479.53925,338.47058,492.8468,337.30594,504.02948,337.75037 M463.4081,337.3596 M466.46817,338.40015 C465.55182,355.54727,464.11023,371.9317,463.22644,381.76187 M465.9092,338.15613 C463.77948,353.36057,464.16357,371.16568,465.5663,382.56024 M773.5492,337.66617 M776.8341,336.34375 C775.1885,358.86426,775.97723,378.0592,774.2234,398.89517 M774.7146,337.91388 C774.6086,359.48828,774.2415,381.09055,774.00964,396.56998 M106.93698,413.64865 M105.63674,411.77933 C159.21782,410.666,214.43526,409.0596,325.9856,411.1865 M104.83388,413.19763 C171.76353,413.87103,238.04637,415.016,324.52625,412.2722 M515.6045,305.9177 M516.8961,307.42844 C510.81732,347.3644,512.86505,388.97202,516.42426,427.17358 M514.20557,307.39304 C514.9448,354.09616,515.61066,400.5983,514.11505,427.45053 M736.96375,308.3422 M736.2044,307.038 C732.62885,331.4066,735.3955,360.41705,734.20044,428.3394 M735.8459,306.72675 C734.1446,354.4958,733.33435,401.5999,734.9821,426.72256 M513.9864,427.5466 M513.69025,427.39084 C568.73157,427.09628,626.12585,427.29443,734.084,427.48184 M515.7201,427.3454 C589.05835,429.47482,661.0963,429.45972,734.8766,426.85248 M53.07096,442.45224 M53.157475,443.36102 C65.770905,441.2603,77.974174,443.1609,95.850975,443.19376 M55.750042,442.66254 C66.309746,441.87656,75.43739,442.30057,94.65584,442.85083 M56.396847,441.01346 M55.755596,441.00528 C53.009468,453.99493,55.992256,466.76578,55.32269,488.75693 M55.92577,443.44608 C54.416985,454.06955,55.27863,466.8855,55.681267,487.6822 M365.8729,444.21268 M365.6636,441.36444 C365.52283,466.10855,366.89966,488.25287,363.17392,502.92673 M365.3599,443.46854 C366.13422,459.78986,365.28076,478.2091,365.07272,502.14084 M106.98771,413.159 M106.26074,411.9422 C106.353806,459.7638,105.53841,505.80884,104.80219,532.6354 M104.39291,412.37082 C104.201866,445.26715,104.42278,478.5816,104.968704,531.9735 M325.2106,413.52267 M323.41473,414.49377 C324.3758,447.99078,323.54102,486.07,325.4411,532.2505 M325.95935,412.18454 C323.67307,444.57236,322.5544,478.08713,324.66556,533.07733 M106.02146,533.364 M104.313515,531.5807 C157.30373,531.43256,210.07603,530.63354,326.7115,532.82983 M105.44055,532.6631 C156.80252,532.7673,207.8329,532.255,325.43362,531.9637 M93.157616,139.80646 M94.44316,139.0963 C98.50417,139.08247,102.67393,142.30194,105.35072,141.94098 M95.51784,137.99112 C97.945175,139.62953,101.1319,141.15656,104.693825,143.00626 M105.36123,142.20491 C102.196106,143.31935,100.60419,144.66484,95.65947,148.06985 M104.66317,142.02191 C100.826454,143.82005,97.55846,146.28304,95.340454,147.1152 M95.84336,147.60664 C95.53083,144.90736,95.08287,140.95862,94.15444,137.69461 M95.44574,146.64848 C95.278175,143.44835,95.01436,140.23775,95.20452,137.69954 M48.45477,187.29797 M50.30736,188.49666 C52.57652,191.9217,54.679714,195.56618,56.386017,202.46739 M49.34513,187.53868 C51.550285,192.16576,52.29451,195.22195,55.23045,202.23761 M55.447823,203.043 C56.604156,198.44153,56.305145,193.46452,59.04753,188.93674 M54.849503,202.32637 C57.13434,197.4361,57.50713,192.08588,60.077877,188.04555 M60.23415,187.61351 C56.507984,187.63202,52.80757,187.55312,50.324657,187.12196 M60.412704,187.19797 C57.11291,187.28546,53.89075,187.02039,49.983616,187.3778 M505.50665,331.3034 M505.0863,332.0425 C506.97592,333.79987,510.90207,335.53687,515.2689,338.45416 M505.45016,333.5256 C508.63962,334.9041,511.19662,335.86862,514.61316,337.58823 M515.6652,336.5672 C513.1204,337.88196,511.44202,340.33334,505.237,342.9753 M515.1556,337.397 C511.32825,339.22488,507.71512,341.05655,505.1878,342.53366 M504.48358,341.3094 C505.38715,340.20248,504.66452,336.94696,504.47217,333.58917 M504.91565,341.80798 C504.71103,339.98557,505.3117,337.7674,505.36417,333.06116 M460.89737,381.18658 M460.099,381.49774 C461.2966,386.9355,462.31088,394.37952,465.96075,398.73276 M460.28143,382.56308 C461.4727,387.72037,462.88568,391.37848,465.01093,397.35672 M465.83337,396.0698 C466.1777,393.92575,467.47488,389.27133,471.5274,381.4734 M464.61877,397.7517 C467.88602,391.27847,469.26556,386.01935,470.4857,383.17105 M469.35764,383.08423 C466.8259,383.29315,462.40665,381.86847,459.05704,382.13855 M469.69678,382.36032 C467.0488,382.67392,464.24756,382.89587,460.0387,382.26062 M93.54906,436.36862 M94.88544,438.53082 C97.919785,438.58582,100.29678,440.81033,104.743774,442.0657 M94.6747,438.24365 C98.7192,440.2727,102.7749,441.90787,104.5319,442.8841 M104.931366,441.54587 C102.172714,442.48666,100.40225,444.9932,95.11264,447.93457 M104.49839,442.5045 C101.62613,444.52856,97.13341,446.27985,95.30827,447.42 M95.47557,446.26123 C94.30566,445.35657,94.7501,442.43307,94.40509,438.81348 M95.09331,446.55893 C95.41767,444.68622,95.17282,441.90326,94.64328,438.1398 M49.756897,488.1058 M48.9207,488.87143 C51.43641,489.21933,52.790375,493.5864,55.353302,501.55667 M50.576347,487.7368 C51.22637,493.2306,54.098118,499.71298,55.43942,503.09885 M54.799274,503.57953 C56.5152,496.23538,59.519535,494.40347,58.65793,487.7078 M55.634052,503.16962 C56.624065,497.79788,58.024944,494.57208,59.98936,487.04727 M59.490215,488.2506 C57.27515,487.615,54.903328,487.6107,50.424736,487.63376 M59.7471,487.33807 C56.300472,488.1439,51.690277,487.29248,50.234562,487.99826" fill="none" stroke="white" stroke-width="1"/>
<text dominant-baseline="middle" fill="white" font-family="monospace" font-size="16" text-anchor="middle" x="125" y="142.5">
d
</text>
<text dominant-baseline="middle" fill="white" font-family="monospace" font-size="16" text-anchor="middle" x="135" y="142.5">
a
</text>
<text dominant-baseline="middle" fill="white" font-family="monospace" font-size="16" text-anchor="middle" x="145" y="142.5">
t
</text>
<text dominant-baseline="middle" fill="white" font-family="monospace" font-size="16" text-anchor="middle" x="155" y="142.5">
a
</text>
<text dominant-baseline="middle" fill="white" font-family="monospace" font-size="16" text-anchor="middle" x="275" y="142.5">
d
</text>
<text dominant-baseline="middle" fill="white" font-family="monospace" font-size="16" text-anchor="middle" x="285" y="142.5">
a
</text>
<text dominant-baseline="middle" fill="white" font-family="monospace" font-size="16" text-anchor="middle" x="295" y="142.5">
t
</text>
<text dominant-baseline="middle" fill="white" font-family="monospace" font-size="16" text-anchor="middle" x="305" y="142.5">
a
</text>
<text dominant-baseline="middle" fill="white" font-family="monospace" font-size="16" text-anchor="middle" x="335" y="142.5">
o
</text>
<text dominant-baseline="middle" fill="white" font-family="monospace" font-size="16" text-anchor="middle" x="345" y="142.5">
-
</text>
<text dominant-baseline="middle" fill="white" font-family="monospace" font-size="16" text-anchor="middle" x="355" y="142.5">
-
</text>
<text dominant-baseline="middle" fill="white" font-family="monospace" font-size="16" text-anchor="middle" x="95" y="172.5">
o
</text>
<text dominant-baseline="middle" fill="white" font-family="monospace" font-size="16" text-anchor="middle" x="125" y="172.5">
f
</text>
<text dominant-baseline="middle" fill="white" font-family="monospace" font-size="16" text-anchor="middle" x="135" y="172.5">
u
</text>
<text dominant-baseline="middle" fill="white" font-family="monospace" font-size="16" text-anchor="middle" x="145" y="172.5">
l
</text>
<text dominant-baseline="middle" fill="white" font-family="monospace" font-size="16" text-anchor="middle" x="155" y="172.5">
l
</text>
<text dominant-baseline="middle" fill="white" font-family="monospace" font-size="16" text-anchor="middle" x="275" y="172.5">
n
</text>
<text dominant-baseline="middle" fill="white" font-family="monospace" font-size="16" text-anchor="middle" x="285" y="172.5">
e
</text>
<text dominant-baseline="middle" fill="white" font-family="monospace" font-size="16" text-anchor="middle" x="295" y="172.5">
x
</text>
<text dominant-baseline="middle" fill="white" font-family="monospace" font-size="16" text-anchor="middle" x="305" y="172.5">
t
</text>
<text dominant-baseline="middle" fill="white" font-family="monospace" font-size="16" text-anchor="middle" x="335" y="172.5">
&gt;
</text>
<text dominant-baseline="middle" fill="white" font-family="monospace" font-size="16" text-anchor="middle" x="95" y="202.5">
o
</text>
<text dominant-baseline="middle" fill="white" font-family="monospace" font-size="16" text-anchor="middle" x="125" y="202.5">
o
</text>
<text dominant-baseline="middle" fill="white" font-family="monospace" font-size="16" text-anchor="middle" x="135" y="202.5">
v
</text>
<text dominant-baseline="middle" fill="white" font-family="monospace" font-size="16" text-anchor="middle" x="145" y="202.5">
e
</text>
<text dominant-baseline="middle" fill="white" font-family="monospace" font-size="16" text-anchor="middle" x="155" y="202.5">
r
</text>
<text dominant-baseline="middle" fill="white" font-family="monospace" font-size="16" text-anchor="middle" x="165" y="202.5">
f
</text>
<text dominant-baseline="middle" fill="white" font-family="monospace" font-size="16" text-anchor="middle" x="175" y="202.5">
l
</text>
<text dominant-baseline="middle" fill="white" font-family="monospace" font-size="16" text-anchor="middle" x="185" y="202.5">
o
</text>
<text dominant-baseline="middle" fill="white" font-family="monospace" font-size="16" text-anchor="middle" x="195" y="202.5">
w
</text>
<text dominant-baseline="middle" fill="white" font-family="monospace" font-size="16" text-anchor="middle" x="225" y="202.5">
u
</text>
<text dominant-baseline="middle" fill="white" font-family="monospace" font-size="16" text-anchor="middle" x="235" y="202.5">
n
</text>
<text dominant-baseline="middle" fill="white" font-family="monospace" font-size="16" text-anchor="middle" x="245" y="202.5">
d
</text>
<text dominant-baseline="middle" fill="white" font-family="monospace" font-size="16" text-anchor="middle" x="255" y="202.5">
e
</text>
<text dominant-baseline="middle" fill="white" font-family="monospace" font-size="16" text-anchor="middle" x="265" y="202.5">
r
</text>
<text dominant-baseline="middle" fill="white" font-family="monospace" font-size="16" text-anchor="middle" x="275" y="202.5">
f
</text>
<text dominant-baseline="middle" fill="white" font-family="monospace" font-size="16" text-anchor="middle" x="285" y="202.5">
l
</text>
<text dominant-baseline="middle" fill="white" font-family="monospace" font-size="16" text-anchor="middle" x="295" y="202.5">
o
</text>
<text dominant-baseline="middle" fill="white" font-family="monospace" font-size="16" text-anchor="middle" x="305" y="202.5">
w
</text>
<text dominant-baseline="middle" fill="white" font-family="monospace" font-size="16" text-anchor="middle" x="335" y="202.5">
o
</text>
<text dominant-baseline="middle" fill="white" font-family="monospace" font-size="16" text-anchor="middle" x="345" y="202.5">
-
</text>
<text dominant-baseline="middle" fill="white" font-family="monospace" font-size="16" text-anchor="middle" x="355" y="202.5">
-
</text>
<text dominant-baseline="middle" fill="white" font-family="monospace" font-size="16" text-anchor="middle" x="535" y="337.5">
d
</text>
<text dominant-baseline="middle" fill="white" font-family="monospace" font-size="16" text-anchor="middle" x="545" y="337.5">
a
</text>
<text dominant-baseline="middle" fill="white" font-family="monospace" font-size="16" text-anchor="middle" x="555" y="337.5">
t
</text>
<text dominant-baseline="middle" fill="white" font-family="monospace" font-size="16" text-anchor="middle" x="565" y="337.5">
a
</text>
<text dominant-baseline="middle" fill="white" font-family="monospace" font-size="16" text-anchor="middle" x="685" y="337.5">
d
</text>
<text dominant-baseline="middle" fill="white" font-family="monospace" font-size="16" text-anchor="middle" x="695" y="337.5">
a
</text>
<text dominant-baseline="middle" fill="white" font-family="monospace" font-size="16" text-anchor="middle" x="705" y="337.5">
t
</text>
<text dominant-baseline="middle" fill="white" font-family="monospace" font-size="16" text-anchor="middle" x="715" y="337.5">
a
</text>
<text dominant-baseline="middle" fill="white" font-family="monospace" font-size="16" text-anchor="middle" x="745" y="337.5">
o
</text>
<text dominant-baseline="middle" fill="white" font-family="monospace" font-size="16" text-anchor="middle" x="755" y="337.5">
-
</text>
<text dominant-baseline="middle" fill="white" font-family="monospace" font-size="16" text-anchor="middle" x="765" y="337.5">
-
</text>
<text dominant-baseline="middle" fill="white" font-family="monospace" font-size="16" text-anchor="middle" x="505" y="367.5">
o
</text>
<text dominant-baseline="middle" fill="white" font-family="monospace" font-size="16" text-anchor="middle" x="535" y="367.5">
f
</text>
<text dominant-baseline="middle" fill="white" font-family="monospace" font-size="16" text-anchor="middle" x="545" y="367.5">
u
</text>
<text dominant-baseline="middle" fill="white" font-family="monospace" font-size="16" text-anchor="middle" x="555" y="367.5">
l
</text>
<text dominant-baseline="middle" fill="white" font-family="monospace" font-size="16" text-anchor="middle" x="565" y="367.5">
l
</text>
<text dominant-baseline="middle" fill="white" font-family="monospace" font-size="16" text-anchor="middle" x="685" y="367.5">
n
</text>
<text dominant-baseline="middle" fill="white" font-family="monospace" font-size="16" text-anchor="middle" x="695" y="367.5">
e
</text>
<text dominant-baseline="middle" fill="white" font-family="monospace" font-size="16" text-anchor="middle" x="705" y="367.5">
x
</text>
<text dominant-baseline="middle" fill="white" font-family="monospace" font-size="16" text-anchor="middle" x="715" y="367.5">
t
</text>
<text dominant-baseline="middle" fill="white" font-family="monospace" font-size="16" text-anchor="middle" x="745" y="367.5">
&gt;
</text>
<text dominant-baseline="middle" fill="white" font-family="monospace" font-size="16" text-anchor="middle" x="505" y="397.5">
o
</text>
<text dominant-baseline="middle" fill="white" font-family="monospace" font-size="16" text-anchor="middle" x="535" y="397.5">
o
</text>
<text dominant-baseline="middle" fill="white" font-family="monospace" font-size="16" text-anchor="middle" x="545" y="397.5">
v
</text>
<text dominant-baseline="middle" fill="white" font-family="monospace" font-size="16" text-anchor="middle" x="555" y="397.5">
e
</text>
<text dominant-baseline="middle" fill="white" font-family="monospace" font-size="16" text-anchor="middle" x="565" y="397.5">
r
</text>
<text dominant-baseline="middle" fill="white" font-family="monospace" font-size="16" text-anchor="middle" x="575" y="397.5">
f
</text>
<text dominant-baseline="middle" fill="white" font-family="monospace" font-size="16" text-anchor="middle" x="585" y="397.5">
l
</text>
<text dominant-baseline="middle" fill="white" font-family="monospace" font-size="16" text-anchor="middle" x="595" y="397.5">
o
</text>
<text dominant-baseline="middle" fill="white" font-family="monospace" font-size="16" text-anchor="middle" x="605" y="397.5">
w
</text>
<text dominant-baseline="middle" fill="white" font-family="monospace" font-size="16" text-anchor="middle" x="635" y="397.5">
u
</text>
<text dominant-baseline="middle" fill="white" font-family="monospace" font-size="16" text-anchor="middle" x="645" y="397.5">
n
</text>
<text dominant-baseline="middle" fill="white" font-family="monospace" font-size="16" text-anchor="middle" x="655" y="397.5">
d
</text>
<text dominant-baseline="middle" fill="white" font-family="monospace" font-size="16" text-anchor="middle" x="665" y="397.5">
e
</text>
<text dominant-baseline="middle" fill="white" font-family="monospace" font-size="16" text-anchor="middle" x="675" y="397.5">
r
</text>
<text dominant-baseline="middle" fill="white" font-family="monospace" font-size="16" text-anchor="middle" x="685" y="397.5">
f
</text>
<text dominant-baseline="middle" fill="white" font-family="monospace" font-size="16" text-anchor="middle" x="695" y="397.5">
l
</text>
<text dominant-baseline="middle" fill="white" font-family="monospace" font-size="16" text-anchor="middle" x="705" y="397.5">
o
</text>
<text dominant-baseline="middle" fill="white" font-family="monospace" font-size="16" text-anchor="middle" x="715" y="397.5">
w
</text>
<text dominant-baseline="middle" fill="white" font-family="monospace" font-size="16" text-anchor="middle" x="745" y="397.5">
o
</text>
<text dominant-baseline="middle" fill="white" font-family="monospace" font-size="16" text-anchor="middle" x="755" y="397.5">
-
</text>
<text dominant-baseline="middle" fill="white" font-family="monospace" font-size="16" text-anchor="middle" x="765" y="397.5">
-
</text>
<text dominant-baseline="middle" fill="white" font-family="monospace" font-size="16" text-anchor="middle" x="125" y="442.5">
d
</text>
<text dominant-baseline="middle" fill="white" font-family="monospace" font-size="16" text-anchor="middle" x="135" y="442.5">
a
</text>
<text dominant-baseline="middle" fill="white" font-family="monospace" font-size="16" text-anchor="middle" x="145" y="442.5">
t
</text>
<text dominant-baseline="middle" fill="white" font-family="monospace" font-size="16" text-anchor="middle" x="155" y="442.5">
a
</text>
<text dominant-baseline="middle" fill="white" font-family="monospace" font-size="16" text-anchor="middle" x="275" y="442.5">
d
</text>
<text dominant-baseline="middle" fill="white" font-family="monospace" font-size="16" text-anchor="middle" x="285" y="442.5">
a
</text>
<text dominant-baseline="middle" fill="white" font-family="monospace" font-size="16" text-anchor="middle" x="295" y="442.5">
t
</text>
<text dominant-baseline="middle" fill="white" font-family="monospace" font-size="16" text-anchor="middle" x="305" y="442.5">
a
</text>
<text dominant-baseline="middle" fill="white" font-family="monospace" font-size="16" text-anchor="middle" x="335" y="442.5">
o
</text>
<text dominant-baseline="middle" fill="white" font-family="monospace" font-size="16" text-anchor="middle" x="345" y="442.5">
-
</text>
<text dominant-baseline="middle" fill="white" font-family="monospace" font-size="16" text-anchor="middle" x="355" y="442.5">
-
</text>
<text dominant-baseline="middle" fill="white" font-family="monospace" font-size="16" text-anchor="middle" x="95" y="472.5">
o
</text>
<text dominant-baseline="middle" fill="white" font-family="monospace" font-size="16" text-anchor="middle" x="125" y="472.5">
f
</text>
<text dominant-baseline="middle" fill="white" font-family="monospace" font-size="16" text-anchor="middle" x="135" y="472.5">
u
</text>
<text dominant-baseline="middle" fill="white" font-family="monospace" font-size="16" text-anchor="middle" x="145" y="472.5">
l
</text>
<text dominant-baseline="middle" fill="white" font-family="monospace" font-size="16" text-anchor="middle" x="155" y="472.5">
l
</text>
<text dominant-baseline="middle" fill="white" font-family="monospace" font-size="16" text-anchor="middle" x="275" y="472.5">
n
</text>
<text dominant-baseline="middle" fill="white" font-family="monospace" font-size="16" text-anchor="middle" x="285" y="472.5">
e
</text>
<text dominant-baseline="middle" fill="white" font-family="monospace" font-size="16" text-anchor="middle" x="295" y="472.5">
x
</text>
<text dominant-baseline="middle" fill="white" font-family="monospace" font-size="16" text-anchor="middle" x="305" y="472.5">
t
</text>
<text dominant-baseline="middle" fill="white" font-family="monospace" font-size="16" text-anchor="middle" x="335" y="472.5">
&gt;
</text>
<text dominant-baseline="middle" fill="white" font-family="monospace" font-size="16" text-anchor="middle" x="95" y="502.5">
o
</text>
<text dominant-baseline="middle" fill="white" font-family="monospace" font-size="16" text-anchor="middle" x="125" y="502.5">
o
</text>
<text dominant-baseline="middle" fill="white" font-family="monospace" font-size="16" text-anchor="middle" x="135" y="502.5">
v
</text>
<text dominant-baseline="middle" fill="white" font-family="monospace" font-size="16" text-anchor="middle" x="145" y="502.5">
e
</text>
<text dominant-baseline="middle" fill="white" font-family="monospace" font-size="16" text-anchor="middle" x="155" y="502.5">
r
</text>
<text dominant-baseline="middle" fill="white" font-family="monospace" font-size="16" text-anchor="middle" x="165" y="502.5">
f
</text>
<text dominant-baseline="middle" fill="white" font-family="monospace" font-size="16" text-anchor="middle" x="175" y="502.5">
l
</text>
<text dominant-baseline="middle" fill="white" font-family="monospace" font-size="16" text-anchor="middle" x="185" y="502.5">
o
</text>
<text dominant-baseline="middle" fill="white" font-family="monospace" font-size="16" text-anchor="middle" x="195" y="502.5">
w
</text>
<text dominant-baseline="middle" fill="white" font-family="monospace" font-size="16" text-anchor="middle" x="225" y="502.5">
u
</text>
<text dominant-baseline="middle" fill="white" font-family="monospace" font-size="16" text-anchor="middle" x="235" y="502.5">
n
</text>
<text dominant-baseline="middle" fill="white" font-family="monospace" font-size="16" text-anchor="middle" x="245" y="502.5">
d
</text>
<text dominant-baseline="middle" fill="white" font-family="monospace" font-size="16" text-anchor="middle" x="255" y="502.5">
e
</text>
<text dominant-baseline="middle" fill="white" font-family="monospace" font-size="16" text-anchor="middle" x="265" y="502.5">
r
</text>
<text dominant-baseline="middle" fill="white" font-family="monospace" font-size="16" text-anchor="middle" x="275" y="502.5">
f
</text>
<text dominant-baseline="middle" fill="white" font-family="monospace" font-size="16" text-anchor="middle" x="285" y="502.5">
l
</text>
<text dominant-baseline="middle" fill="white" font-family="monospace" font-size="16" text-anchor="middle" x="295" y="502.5">
o
</text>
<text dominant-baseline="middle" fill="white" font-family="monospace" font-size="16" text-anchor="middle" x="305" y="502.5">
w
</text>
<text dominant-baseline="middle" fill="white" font-family="monospace" font-size="16" text-anchor="middle" x="335" y="502.5">
o
</text>
<text dominant-baseline="middle" fill="white" font-family="monospace" font-size="16" text-anchor="middle" x="345" y="502.5">
-
</text>
<text dominant-baseline="middle" fill="white" font-family="monospace" font-size="16" text-anchor="middle" x="355" y="502.5">
-
</text>
</svg>