<svg viewBox="0 0 600 450" width="600px" xmlns="http://www.w3.org/2000/svg">
<path d="M105.74456,97.84465 M105.644775,97.39612 C182.46591,100.63425,259.88358,100.191956,323.62808,97.26066 M104.92666,97.74415 C160.24313,94.7993,215.72658,95.237885,324.64935,96.95599 M54.42391,125.66562 M56.023354,128.84622 C63.851402,129.47816,71.89193,127.14527,96.17604,127.41416 M55.60617,126.55343 C63.156487,127.80111,73.75393,128.35194,95.05497,128.31075 M54.66119,127.63971 M53.265625,125.64855 C55.969704,138.00015,54.51998,144.74023,54.15639,174.23888 M54.14545,126.98554 C53.699474,143.9002,55.097385,159.14444,55.5513,172.7892 M365.96246,126.064766 M366.71317,126.26987 C362.66107,147.0851,365.5126,164.49081,364.43524,188.95294 M364.80542,128.09337 C363.77582,146.94022,363.6608,165.52464,364.81134,188.37204 M104.58981,97.30452 M106.96298,97.981514 C105.27322,138.14066,103.33317,179.29575,104.848816,216.39453 M104.29395,98.43625 C103.265564,136.2086,103.406525,173.69815,105.80113,216.7629 M325.21954,98.29533 M323.82483,99.257324 C327.77567,128.57655,328.02237,157.37009,323.2918,219.4187 M325.91254,98.33739 C326.25586,135.3129,325.6917,173.54631,324.30545,217.932 M106.291824,219.12585 M105.59891,217.04428 C170.96568,216.88972,239.13905,214.8351,324.89517,216.25679 M104.94875,216.9325 C159.56955,213.16878,212.75299,213.55246,325.46375,218.24785 M93.30957,121.292946 M94.801674,122.21274 C98.601135,123.39906,101.7159,126.002594,104.07411,128.59293 M95.41367,122.73286 C97.726204,123.491806,100.35115,125.51806,105.14095,127.42149 M105.8254,127.331726 C101.02619,128.60722,96.93444,130.66547,94.0299,131.12442 M105.519264,127.44537 C102.98938,128.9031,100.96376,130.05951,95.15637,131.84988 M94.93682,132.56163 C94.103584,130.29199,95.615616,128.75203,95.631424,123.78258 M94.83392,132.3204 C94.61951,129.76117,95.24576,126.92982,94.64617,122.620445 M49.195625,173.01515 M50.131374,172.87735 C50.993793,176.89334,55.03437,182.3574,55.633434,189.0276 M50.551495,173.01854 C51.534996,178.44885,53.82368,184.25107,55.430683,187.54181 M53.529503,189.03131 C57.581028,181.988,57.59315,179.07687,60.580853,171.84258 M54.54294,187.94954 C55.78679,183.00711,57.92648,178.1114,59.84846,173.1364 M60.722645,171.95334 C56.89792,172.627,53.530437,172.6921,49.00268,173.32486 M59.86405,172.56465 C56.21585,172.67715,52.02231,172.76772,50.09862,172.95401" fill="none" stroke="white" stroke-width="1"/>
<text dominant-baseline="middle" fill="white" font-family="monospace" font-size="16" text-anchor="middle" x="125" y="127.5">
d
</text>
<text dominant-baseline="middle" fill="white" font-family="monospace" font-size="16" text-anchor="middle" x="135" y="127.5">
a
</text>
<text dominant-baseline="middle" fill="white" font-family="monospace" font-size="16" text-anchor="middle" x="145" y="127.5">
t
</text>
<text dominant-baseline="middle" fill="white" font-family="monospace" font-size="16" text-anchor="middle" x="155" y="127.5">
a
</text>
<text dominant-baseline="middle" fill="white" font-family="monospace" font-size="16" text-anchor="middle" x="275" y="127.5">
d
</text>
<text dominant-baseline="middle" fill="white" font-family="monospace" font-size="16" text-anchor="middle" x="285" y="127.5">
a
</text>
<text dominant-baseline="middle" fill="white" font-family="monospace" font-size="16" text-anchor="middle" x="295" y="127.5">
t
</text>
<text dominant-baseline="middle" fill="white" font-family="monospace" font-size="16" text-anchor="middle" x="305" y="127.5">
a
</text>
<text dominant-baseline="middle" fill="white" font-family="monospace" font-size="16" text-anchor="middle" x="335" y="127.5">
o
</text>
<text dominant-baseline="middle" fill="white" font-family="monospace" font-size="16" text-anchor="middle" x="345" y="127.5">
-
</text>
<text dominant-baseline="middle" fill="white" font-family="monospace" font-size="16" text-anchor="middle" x="355" y="127.5">
-
</text>
<text dominant-baseline="middle" fill="white" font-family="monospace" font-size="16" text-anchor="middle" x="95" y="157.5">
o
</text>
<text dominant-baseline="middle" fill="white" font-family="monospace" font-size="16" text-anchor="middle" x="125" y="157.5">
f
</text>
<text dominant-baseline="middle" fill="white" font-family="monospace" font-size="16" text-anchor="middle" x="135" y="157.5">
u
</text>
<text dominant-baseline="middle" fill="white" font-family="monospace" font-size="16" text-anchor="middle" x="145" y="157.5">
l
</text>
<text dominant-baseline="middle" fill="white" font-family="monospace" font-size="16" text-anchor="middle" x="155" y="157.5">
l
</text>
<text dominant-baseline="middle" fill="white" font-family="monospace" font-size="16" text-anchor="middle" x="275" y="157.5">
n
</text>
<text dominant-baseline="middle" fill="white" font-family="monospace" font-size="16" text-anchor="middle" x="285" y="157.5">
e
</text>
<text dominant-baseline="middle" fill="white" font-family="monospace" font-size="16" text-anchor="middle" x="295" y="157.5">
x
</text>
<text dominant-baseline="middle" fill="white" font-family="monospace" font-size="16" text-anchor="middle" x="305" y="157.5">
t
</text>
<text dominant-baseline="middle" fill="white" font-family="monospace" font-size="16" text-anchor="middle" x="335" y="157.5">
&gt;
</text>
<text dominant-baseline="middle" fill="white" font-family="monospace" font-size="16" text-anchor="middle" x="95" y="187.5">
o
</text>
<text dominant-baseline="middle" fill="white" font-family="monospace" font-size="16" text-anchor="middle" x="125" y="187.5">
o
</text>
<text dominant-baseline="middle" fill="white" font-family="monospace" font-size="16" text-anchor="middle" x="135" y="187.5">
v
</text>
<text dominant-baseline="middle" fill="white" font-family="monospace" font-size="16" text-anchor="middle" x="145" y="187.5">
e
</text>
<text dominant-baseline="middle" fill="white" font-family="monospace" font-size="16" text-anchor="middle" x="155" y="187.5">
r
</text>
<text dominant-baseline="middle" fill="white" font-family="monospace" font-size="16" text-anchor="middle" x="165" y="187.5">
f
</text>
<text dominant-baseline="middle" fill="white" font-family="monospace" font-size="16" text-anchor="middle" x="175" y="187.5">
l
</text>
<text dominant-baseline="middle" fill="white" font-family="monospace" font-size="16" text-anchor="middle" x="185" y="187.5">
o
</text>
<text dominant-baseline="middle" fill="white" font-family="monospace" font-size="16" text-anchor="middle" x="195" y="187.5">
w
</text>
<text dominant-baseline="middle" fill="white" font-family="monospace" font-size="16" text-anchor="middle" x="225" y="187.5">
u
</text>
<text dominant-baseline="middle" fill="white" font-family="monospace" font-size="16" text-anchor="middle" x="235" y="187.5">
n
</text>
<text dominant-baseline="middle" fill="white" font-family="monospace" font-size="16" text-anchor="middle" x="245" y="187.5">
d
</text>
<text dominant-baseline="middle" fill="white" font-family="monospace" font-size="16" text-anchor="middle" x="255" y="187.5">
e
</text>
<text dominant-baseline="middle" fill="white" font-family="monospace" font-size="16" text-anchor="middle" x="265" y="187.5">
r
</text>
<text dominant-baseline="middle" fill="white" font-family="monospace" font-size="16" text-anchor="middle" x="275" y="187.5">
f
</text>
<text dominant-baseline="middle" fill="white" font-family="monospace" font-size="16" text-anchor="middle" x="285" y="187.5">
l
</text>
<text dominant-baseline="middle" fill="white" font-family="monospace" font-size="16" text-anchor="middle" x="295" y="187.5">
o
</text>
<text dominant-baseline="middle" fill="white" font-family="monospace" font-size="16" text-anchor="middle" x="305" y="187.5">
w
</text>
<text dominant-baseline="middle" fill="white" font-family="monospace" font-size="16" text-anchor="middle" x="335" y="187.5">
o
</text>
<text dominant-baseline="middle" fill="white" font-family="monospace" font-size="16" text-anchor="middle" x="345" y="187.5">
-
</text>
<text dominant-baseline="middle" fill="white" font-family="monospace" font-size="16" text-anchor="middle" x="355" y="187.5">
-
</text>
</svg>